<svg width="1270" height="401" viewBox="0 0 1270 401" fill="none" xmlns="http://www.w3.org/2000/svg">
<g filter="url(#filter0_n_2_4)">
<path d="M161.429 142.379C161.759 142.379 162.089 142.379 165.394 142.379C168.699 142.379 174.969 142.379 327.524 143.369C480.079 144.359 778.729 146.339 931.424 148.184C1084.12 150.029 1081.81 151.679 1074.02 154.179C1066.23 156.679 1053.03 159.979 1044.58 162.339C1036.13 164.699 1032.83 166.019 1010.01 169.834C987.189 173.649 944.949 179.919 837.389 183.809C729.829 187.699 558.229 189.019 434.519 187.554C310.809 186.089 240.189 181.799 329.044 187.179C417.899 192.559 668.369 207.739 817.859 215.064C967.349 222.389 1008.27 221.399 1035.62 221.384C1062.97 221.369 1075.51 222.359 1083.45 223.199C1098.49 224.789 1103.07 226.039 1127.66 226.049C1137.08 226.053 1141.75 223.719 1142.92 222.554C1143.3 222.184 1141.13 221.719 992.109 228.149C843.089 234.579 546.749 247.779 377.094 252.764C207.439 257.749 173.449 254.119 153.794 251.754C124.004 248.169 119.779 247.049 118.269 246.384C112.542 243.862 130.069 241.379 162.239 230.774C177.131 225.865 198.989 219.839 211.694 215.619C227.692 210.305 231.749 206.059 234.244 203.234C236.777 200.366 237.759 197.389 238.259 195.229C239.672 189.124 231.789 181.739 228.109 177.394C224.293 172.887 213.189 164.119 203.619 158.224C192.928 151.638 170.169 145.739 162.449 142.224C156.332 139.438 155.109 131.399 151.279 127.559C149.226 125.501 143.799 124.719 135.329 123.719C130.511 123.15 124.549 123.379 278.734 120.244C432.919 117.109 747.409 110.839 910.574 107.444C1073.74 104.049 1076.05 103.719 1078.39 103.549C1083.04 103.212 1086.75 103.049 1097.99 101.889C1107.89 100.867 1126.39 99.7388 1136.57 100.049C1146.75 100.359 1148.07 102.339 1149.08 104.019C1152.24 109.28 1153.43 113.359 1155.25 120.349C1157.13 127.551 1157.09 132.359 1158.42 152.464C1159.15 163.371 1162.73 181.259 1167.08 197.169C1168.13 201.007 1168.76 203.369 1169.26 205.529C1170.73 211.882 1159.79 218.359 1145.99 226.179C1137 231.277 1129.78 233.369 1120.68 237.014C1113.34 239.955 1100.03 243.959 1082.83 247.489C1065.64 251.019 1044.85 253.659 920.289 258.814C795.729 263.969 568.029 271.559 440.994 273.984C313.959 276.409 294.489 273.439 281.819 271.084C256.732 266.421 250.469 262.059 238.309 255.074C229.109 249.789 214.849 246.399 198.529 244.224C189.279 242.991 172.109 240.759 162.279 239.239C146.64 236.821 137.489 233.399 129.784 231.219C122.138 229.056 115.449 218.399 112.439 212.074C108.304 203.384 108.109 192.759 105.769 179.759C104.344 171.838 102.449 157.139 101.264 147.569C100.258 139.438 99.7693 128.079 100.089 123.539C100.223 121.645 102.069 131.259 104.399 150.819C106.729 170.379 110.029 203.379 112.884 223.514C115.739 243.649 118.049 249.919 120.559 255.954C128.521 275.098 133.409 280.019 137.579 282.539C139.93 283.96 143.079 285.039 149.869 286.699C163.386 290.003 174.739 291.039 187.974 293.524C198.86 295.568 218.369 298.319 245.229 299.684C272.089 301.049 305.749 300.719 329.194 299.559C352.639 298.399 364.849 296.419 373.284 294.739C381.719 293.059 386.009 291.739 439.699 284.954C493.389 278.169 596.349 265.959 668.529 259.339C740.709 252.719 778.989 252.059 799.369 251.554C819.749 251.049 821.069 250.719 822.429 250.379" stroke="white" stroke-width="200" stroke-linecap="round"/>
</g>
<defs>
<filter id="filter0_n_2_4" x="0" y="0" width="1269.43" height="400.576" filterUnits="userSpaceOnUse" color-interpolation-filters="sRGB">
<feFlood flood-opacity="0" result="BackgroundImageFix"/>
<feBlend mode="normal" in="SourceGraphic" in2="BackgroundImageFix" result="shape"/>
<feTurbulence type="fractalNoise" baseFrequency="0.25 0.25" stitchTiles="stitch" numOctaves="3" result="noise" seed="8509" />
<feColorMatrix in="noise" type="luminanceToAlpha" result="alphaNoise" />
<feComponentTransfer in="alphaNoise" result="coloredNoise1">
<feFuncA type="discrete" tableValues="1 1 1 1 1 1 1 1 1 1 1 1 1 1 1 1 1 1 1 1 1 1 1 1 1 1 1 1 1 1 1 1 1 1 1 1 1 1 1 1 1 1 1 1 1 1 1 1 1 1 1 0 0 0 0 0 0 0 0 0 0 0 0 0 0 0 0 0 0 0 0 0 0 0 0 0 0 0 0 0 0 0 0 0 0 0 0 0 0 0 0 0 0 0 0 0 0 0 0 0 "/>
</feComponentTransfer>
<feComposite operator="in" in2="shape" in="coloredNoise1" result="noise1Clipped" />
<feComponentTransfer in="alphaNoise" result="coloredNoise2">
<feFuncA type="discrete" tableValues="0 0 0 0 0 0 0 0 0 0 0 0 0 0 0 0 0 0 0 0 0 0 0 0 0 0 0 0 0 0 0 0 0 0 0 0 0 0 0 0 0 0 0 0 0 0 0 0 0 1 1 1 1 1 1 1 1 1 1 1 1 1 1 1 1 1 1 1 1 1 1 1 1 1 1 1 1 1 1 1 1 1 1 1 1 1 1 1 1 1 1 1 1 1 1 1 1 1 1 1 "/>
</feComponentTransfer>
<feComposite operator="in" in2="shape" in="coloredNoise2" result="noise2Clipped" />
<feFlood flood-color="rgba(39, 0, 17, 0.25)" result="color1Flood" />
<feComposite operator="in" in2="noise1Clipped" in="color1Flood" result="color1" />
<feFlood flood-color="rgba(255, 255, 255, 0)" result="color2Flood" />
<feComposite operator="in" in2="noise2Clipped" in="color2Flood" result="color2" />
<feMerge result="effect1_noise_2_4">
<feMergeNode in="shape" />
<feMergeNode in="color1" />
<feMergeNode in="color2" />
</feMerge>
</filter>
</defs>
</svg>
